<svg width="253" height="345" viewBox="0 0 253 345" fill="none" xmlns="http://www.w3.org/2000/svg">
<path d="M235.025 126.225C233.182 121.022 232.861 114.691 233.813 109.229C236.288 94.9985 239.725 80.9181 243.031 66.8477C245.165 57.7603 242.83 51.4291 233.713 47.6444C221.409 42.5415 216.33 39.5656 213.725 38.0777C213.715 38.0677 213.695 38.0577 213.685 38.0577C212.663 37.6383 211.631 37.2389 210.599 36.8794C206.661 35.5113 201.681 37.139 197.173 37.4186C197.584 39.1262 197.974 40.8339 198.375 42.5415V42.5515C199.157 45.8469 199.938 49.1523 200.83 52.4178C201.371 52.947 201.932 53.3065 202.383 53.5462C202.633 53.666 202.874 53.7859 203.094 53.9157C203.164 53.9556 203.224 53.9856 203.275 54.0155C209.917 58.1797 221.94 62.0544 222.171 66.5481C222.842 79.1006 219.365 92.1325 215.809 104.475C214.957 107.451 207.272 110.487 203.024 110.117C182.575 108.37 162.196 103.197 141.857 103.517C112.961 103.976 84.0356 107.461 55.3004 111.086C42.5359 112.694 35.6427 110.667 33.5687 96.806C31.9556 86.041 27.9679 75.6255 24.8119 64.2513C56.643 51.0297 88.7045 37.3887 121.117 24.6264C121.277 24.5665 121.427 24.5066 121.588 24.4567C130.365 21.2511 136.406 26.2841 136.687 26.5238C136.697 26.5338 136.697 26.5338 136.697 26.5338C146.425 28.9704 153.92 33.3243 159.961 37.2089C168.147 42.4716 173.698 46.8755 178.577 44.5587C180.17 43.7997 182.274 42.0522 183.657 37.3887C181.222 32.6752 180 25.7049 176.142 23.6777C162.456 16.4678 148.028 10.556 133.541 5.03368C129.262 3.40595 123.211 3.14631 119.073 4.88389C86.7608 18.4151 54.7494 32.6752 22.5676 46.516C9.67281 52.0682 6.32637 61.4951 9.87318 74.3872C11.326 79.6698 12.2077 85.1123 13.42 90.4648C17.7884 109.938 24.7017 128.402 11.8871 148.734C4.95375 159.748 5.71521 175.576 3 189.227V246.338C6.29633 262.845 9.16182 279.462 12.9892 295.849C19.141 322.143 40.2215 339.289 66.7724 338.46C85.7088 337.871 104.535 334.465 123.481 333.597C132.789 333.177 142.207 336.103 151.625 336.742C166.103 337.721 180.641 338.749 195.129 338.46C219.987 337.97 232.05 320.315 237.54 300.113C253.301 242.194 255.495 183.955 235.025 126.225ZM54.9297 128.712C77.7635 126.105 100.477 121.082 123.331 120.453C142.468 119.934 161.755 124.487 180.972 126.684C186.142 127.284 191.322 127.933 196.461 128.762C219.265 132.436 219.596 132.446 216.871 157.591H33.9394C31.2743 134.464 34.1398 131.078 54.9297 128.712ZM181.733 179.731C193.065 179.85 198.375 184.254 197.724 197.186C196.492 221.712 193.486 244.89 173.648 262.386C149.461 283.716 114.564 286.372 87.362 268.757C60.3601 251.271 46.7841 216.859 56.9436 188.099C58.4064 183.965 66.7223 180.14 72.0626 179.84C90.5381 178.842 109.114 179.461 127.639 179.461V179.681C145.674 179.681 163.709 179.531 181.733 179.731ZM228.403 189.587C226.279 223.859 225.688 258.411 220.548 292.264C216.861 316.59 202.363 325.348 177.956 321.543C142.899 316.081 108.292 316.271 73.2348 321.264C46.2631 325.098 30.1922 312.256 26.9961 282.328C23.82 252.619 24.5113 222.501 23.5995 192.563C23.5394 190.605 23.6697 188.169 24.7518 186.761C26.8658 184.005 29.7313 181.828 32.2762 179.411C33.729 182.557 36.1637 185.622 36.4442 188.868C37.8469 205.125 36.1236 222.102 40.2315 237.57C48.848 269.995 71.8622 291.086 103.934 299.105C140.264 308.182 172.525 299.164 196.421 268.357C212.713 247.367 219.836 223.39 219.325 196.987C219.205 190.795 219.305 184.594 219.305 178.392C221.209 178.173 223.113 177.943 225.006 177.723C226.209 181.678 228.643 185.712 228.403 189.587Z" fill="#365278"/>
<path d="M139.762 59.8775H149.08C151.124 59.8775 152.777 61.5253 152.777 63.5624V70.303C152.777 72.3402 151.124 73.9879 149.08 73.9879H139.762C137.718 73.9879 136.065 75.6356 136.065 77.6728V89.3965C136.065 91.4337 134.412 93.0814 132.368 93.0814H124.323C122.279 93.0814 120.625 91.4337 120.625 89.3965V77.6828C120.625 75.6456 118.972 73.9979 116.928 73.9979H107.56C105.516 73.9979 103.863 72.3502 103.863 70.313V63.5724C103.863 61.5352 105.516 59.8875 107.56 59.8875H116.928C118.972 59.8875 120.625 58.2398 120.625 56.2027V45.0082C120.625 42.9711 122.279 41.3234 124.323 41.3234H132.368C134.412 41.3234 136.065 42.9711 136.065 45.0082V56.2027C136.065 58.2298 137.718 59.8775 139.762 59.8775Z" fill="#365278"/>
<path d="M170.867 44.2282C176.068 46.7929 182.364 44.6557 184.928 39.4546C187.493 34.2536 185.356 27.9582 180.155 25.3936L170.867 44.2282ZM124.478 12.8804L120.197 3.29262L124.478 12.8804ZM131.3 13.0107L135.944 3.59334L131.3 13.0107ZM41.429 115.183L29.0075 64.7776L8.61754 69.8023L21.039 120.208L41.429 115.183ZM27.6149 67.6269L128.758 22.4681L120.197 3.29262L19.0533 48.4514L27.6149 67.6269ZM126.657 22.428L170.867 44.2282L180.155 25.3936L135.944 3.59334L126.657 22.428ZM128.758 22.4681C128.087 22.768 127.316 22.7533 126.657 22.428L135.944 3.59334C131.001 1.15589 125.229 1.04567 120.197 3.29262L128.758 22.4681ZM29.0075 64.7776C29.2938 65.9392 28.7073 67.1392 27.6149 67.6269L19.0533 48.4514C10.8674 52.1063 6.47251 61.0978 8.61754 69.8023L29.0075 64.7776Z" fill="#34517C"/>
<path d="M200.559 41.8012L233.622 59.7762L222.601 118.694" stroke="#34517C" stroke-width="19" stroke-linecap="round" stroke-linejoin="round"/>
<path d="M83.1543 223.198H91.3519L94.0844 217.781L98.6386 230.422L112.301 199.722L116.855 246.674H122.32L128.696 225.004H135.072L137.805 216.878L139.626 220.49L143.27 211.46L150.556 223.198H173.327" stroke="#30517A" stroke-width="5.45455" stroke-linecap="round" stroke-linejoin="round"/>
<path d="M18.7074 164.131C-6.16568 164.131 8.36317 307.931 22.8904 286.96" stroke="#34517C" stroke-width="10"/>
</svg>
